<?xml version="1.0" encoding="UTF-8" standalone="no"?>
<!-- Created with Inkscape (http://www.inkscape.org/) -->

<svg
   xmlns:dc="http://purl.org/dc/elements/1.1/"
   xmlns:cc="http://creativecommons.org/ns#"
   xmlns:rdf="http://www.w3.org/1999/02/22-rdf-syntax-ns#"
   xmlns:svg="http://www.w3.org/2000/svg"
   xmlns="http://www.w3.org/2000/svg"
   xmlns:sodipodi="http://sodipodi.sourceforge.net/DTD/sodipodi-0.dtd"
   xmlns:inkscape="http://www.inkscape.org/namespaces/inkscape"
   width="48"
   height="48"
   viewBox="0 0 12.7 12.700001"
   version="1.1"
   id="svg1524"
   inkscape:version="0.92.3 (2405546, 2018-03-11)"
   sodipodi:docname="cmd_icon_high_five.svg">
  <defs
     id="defs1518" />
  <sodipodi:namedview
     id="base"
     pagecolor="#ffffff"
     bordercolor="#666666"
     borderopacity="1.0"
     inkscape:pageopacity="0.0"
     inkscape:pageshadow="2"
     inkscape:zoom="5.6"
     inkscape:cx="-48.115669"
     inkscape:cy="57.319673"
     inkscape:document-units="px"
     inkscape:current-layer="g956"
     showgrid="false"
     units="px"
     inkscape:window-width="1600"
     inkscape:window-height="837"
     inkscape:window-x="1358"
     inkscape:window-y="-8"
     inkscape:window-maximized="1" />
  <metadata
     id="metadata1521">
    <rdf:RDF>
      <cc:Work
         rdf:about="">
        <dc:format>image/svg+xml</dc:format>
        <dc:type
           rdf:resource="http://purl.org/dc/dcmitype/StillImage" />
        <dc:title />
      </cc:Work>
    </rdf:RDF>
  </metadata>
  <g
     inkscape:label="Layer 1"
     inkscape:groupmode="layer"
     id="layer1"
     transform="translate(0,-284.29998)">
    <rect
       style="opacity:1;fill:none;fill-opacity:1;stroke:none;stroke-width:0.76899999;stroke-linecap:butt;stroke-linejoin:miter;stroke-miterlimit:4;stroke-dasharray:none;stroke-dashoffset:0;stroke-opacity:1"
       id="rect1033-0-5"
       width="211.66666"
       height="127"
       x="48.113926"
       y="213.1875"
       ry="0" />
    <rect
       style="opacity:1;fill:none;fill-opacity:1;stroke:none;stroke-width:0.76899999;stroke-linecap:butt;stroke-linejoin:miter;stroke-miterlimit:4;stroke-dasharray:none;stroke-dashoffset:0;stroke-opacity:1"
       id="rect1158-9"
       width="211.66666"
       height="127"
       x="-55.4832"
       y="121.67668"
       ry="0" />
    <g
       id="g956"
       transform="matrix(0.07383307,0,0,0.07383307,45.546452,277.08849)">
      <g
         id="g832">
        <rect
           rx="1.3229167"
           ry="1.3229167"
           y="284.7197"
           x="0.41972482"
           height="11.860551"
           width="11.860551"
           id="rect2069"
           style="opacity:1;fill:#555579;fill-opacity:1;stroke:#87d7f6;stroke-width:0.83944958;stroke-linecap:butt;stroke-linejoin:miter;stroke-miterlimit:4;stroke-dasharray:none;stroke-dashoffset:0;stroke-opacity:1"
           transform="matrix(13.544066,0,0,13.544066,-616.88417,-3752.905)" />
        <path
           style="opacity:1;fill:#88d7f6;fill-opacity:1;stroke:none;stroke-width:0.76900005;stroke-linecap:butt;stroke-linejoin:miter;stroke-miterlimit:4;stroke-dasharray:none;stroke-dashoffset:0;stroke-opacity:1"
           d="m -526.5974,131.87475 c -3.35038,0 -6.0477,2.69731 -6.0477,6.04769 v 38.51703 c -1.5571,-0.0942 -3.14343,-0.13216 -4.7625,-0.10645 v -33.11891 c 0,-3.14098 -2.52895,-5.66942 -5.66994,-5.66942 -3.14098,0 -5.66942,2.52844 -5.66942,5.66942 v 34.33641 c -0.0893,0.0176 -0.17767,0.0336 -0.26716,0.0517 l -0.79117,20.4184 c -1.57052,-3.45905 -2.92131,-5.55765 -4.11448,-6.68745 l -4.77232,-9.24233 c -1.82539,-3.53511 -6.14078,-4.91152 -9.67589,-3.08612 -3.53511,1.8254 -4.91152,6.14079 -3.08612,9.6759 l 5.72265,11.08304 c 0.28581,0.5535 0.63302,1.05393 1.02836,1.49759 7.09273,31.48734 42.75226,42.97848 64.07735,27.15492 9.48677,-7.03935 11.08814,-22.73398 9.12852,-40.86778 -0.0585,-0.0168 -0.11669,-0.0348 -0.17518,-0.0517 v -35.39992 c 0,-2.61748 -2.10729,-4.72478 -4.72477,-4.72478 -2.61749,0 -4.72478,2.1073 -4.72478,4.72478 v 32.31896 c -1.33197,-0.46572 -2.66733,-0.93565 -4.00647,-1.4056 v -40.74067 c 0,-3.03628 -2.44452,-5.4808 -5.48081,-5.4808 -3.03628,0 -5.4808,2.44452 -5.4808,5.4808 v 37.16776 c -1.46752,-0.41888 -2.95372,-0.80768 -4.45968,-1.1622 v -40.35258 c 0,-3.35038 -2.69731,-6.04769 -6.04769,-6.04769 z"
           id="rect897-5"
           inkscape:connector-curvature="0"
           sodipodi:nodetypes="ssccssscccccscccsccsssccsssccss" />
        <rect
           style="opacity:1;fill:#88d7f6;fill-opacity:1;stroke:none;stroke-width:0.54511184;stroke-linecap:butt;stroke-linejoin:miter;stroke-miterlimit:4;stroke-dasharray:none;stroke-dashoffset:0;stroke-opacity:1"
           id="rect926-4"
           width="16.485514"
           height="4.7247047"
           x="-326.25562"
           y="491.08395"
           ry="2.3623524"
           rx="0"
           transform="rotate(43.548606)" />
        <rect
           rx="0"
           ry="2.0788686"
           y="174.66394"
           x="-610.41077"
           height="4.9136896"
           width="27.511671"
           id="rect932-7"
           style="opacity:1;fill:#88d7f6;fill-opacity:1;stroke:none;stroke-width:0.57190609;stroke-linecap:butt;stroke-linejoin:miter;stroke-miterlimit:4;stroke-dasharray:none;stroke-dashoffset:0;stroke-opacity:1" />
        <rect
           rx="0"
           y="173.57416"
           x="-479.76459"
           height="4.9136896"
           width="27.511671"
           id="rect932-3-1"
           style="opacity:1;fill:#88d7f6;fill-opacity:1;stroke:none;stroke-width:0.57190609;stroke-linecap:butt;stroke-linejoin:miter;stroke-miterlimit:4;stroke-dasharray:none;stroke-dashoffset:0;stroke-opacity:1" />
        <rect
           rx="0"
           ry="2.3623521"
           y="-190.16977"
           x="-466.22675"
           height="4.7247043"
           width="16.485514"
           id="rect951-7"
           style="opacity:1;fill:#88d7f6;fill-opacity:1;stroke:none;stroke-width:0.54511184;stroke-linecap:butt;stroke-linejoin:miter;stroke-miterlimit:4;stroke-dasharray:none;stroke-dashoffset:0;stroke-opacity:1"
           transform="rotate(-38.550836)" />
        <rect
           rx="0"
           ry="2.3623521"
           y="455.69827"
           x="-257.23175"
           height="4.7247043"
           width="16.485514"
           id="rect951-5-7"
           style="opacity:1;fill:#88d7f6;fill-opacity:1;stroke:none;stroke-width:0.54511184;stroke-linecap:butt;stroke-linejoin:miter;stroke-miterlimit:4;stroke-dasharray:none;stroke-dashoffset:0;stroke-opacity:1"
           transform="rotate(36.281474)" />
        <rect
           rx="0"
           ry="2.3623524"
           y="-198.49133"
           x="-594.73419"
           height="4.7247047"
           width="16.485514"
           id="rect951-4-8"
           style="opacity:1;fill:#88d7f6;fill-opacity:1;stroke:none;stroke-width:0.54511184;stroke-linecap:butt;stroke-linejoin:miter;stroke-miterlimit:4;stroke-dasharray:none;stroke-dashoffset:0;stroke-opacity:1"
           transform="rotate(-39.719437)" />
      </g>
    </g>
  </g>
</svg>
