<?xml version="1.0" encoding="UTF-8" standalone="no"?>
<!-- Created with Inkscape (http://www.inkscape.org/) -->

<svg
   xmlns:dc="http://purl.org/dc/elements/1.1/"
   xmlns:cc="http://creativecommons.org/ns#"
   xmlns:rdf="http://www.w3.org/1999/02/22-rdf-syntax-ns#"
   xmlns:svg="http://www.w3.org/2000/svg"
   xmlns="http://www.w3.org/2000/svg"
   xmlns:xlink="http://www.w3.org/1999/xlink"
   xmlns:sodipodi="http://sodipodi.sourceforge.net/DTD/sodipodi-0.dtd"
   xmlns:inkscape="http://www.inkscape.org/namespaces/inkscape"
   width="1600"
   height="480"
   viewBox="0 0 423.33332 127"
   version="1.1"
   id="svg8"
   sodipodi:docname="face-transitions.svg"
   inkscape:export-filename="C:\Users\CodeMinion\Documents\3DPrinting\Costumes\Overwatch\Mei\Snowball\Code\snowball\assets\spritesheets\sprite_transitions.png"
   inkscape:export-xdpi="96"
   inkscape:export-ydpi="96"
   inkscape:version="0.92.3 (2405546, 2018-03-11)">
  <defs
     id="defs2" />
  <sodipodi:namedview
     id="base"
     pagecolor="#000000"
     bordercolor="#666666"
     borderopacity="1.0"
     inkscape:pageopacity="0"
     inkscape:pageshadow="2"
     inkscape:zoom="0.24748737"
     inkscape:cx="254.07937"
     inkscape:cy="182.44804"
     inkscape:document-units="px"
     inkscape:current-layer="layer1"
     showgrid="false"
     units="px"
     inkscape:window-width="1366"
     inkscape:window-height="705"
     inkscape:window-x="-8"
     inkscape:window-y="-8"
     inkscape:window-maximized="1"
     showguides="false"
     inkscape:guide-bbox="true"
     inkscape:snap-global="false">
    <sodipodi:guide
       position="119.81845,0"
       orientation="0,1"
       id="guide889"
       inkscape:locked="false" />
  </sodipodi:namedview>
  <metadata
     id="metadata5">
    <rdf:RDF>
      <cc:Work
         rdf:about="">
        <dc:format>image/svg+xml</dc:format>
        <dc:type
           rdf:resource="http://purl.org/dc/dcmitype/StillImage" />
        <dc:title></dc:title>
      </cc:Work>
    </rdf:RDF>
  </metadata>
  <g
     inkscape:label="Layer 1"
     inkscape:groupmode="layer"
     id="layer1"
     transform="translate(0,-169.99998)">
    <image
       sodipodi:absref="C:\Users\CodeMinion\Documents\3DPrinting\Costumes\Overwatch\Mei\Snowball\References\Snowball-battery-full.PNG"
       y="582.66815"
       x="488.75607"
       id="image982"
       xlink:href="file:///C:/Users/CodeMinion/Documents/3DPrinting/Costumes/Overwatch/Mei/Snowball/References/Snowball-battery-full.PNG"
       preserveAspectRatio="none"
       height="96.837502"
       width="168.53958" />
    <image
       sodipodi:absref="C:\Users\CodeMinion\Documents\3DPrinting\Costumes\Overwatch\Mei\Snowball\References\Snowball-battery-1.PNG"
       y="576.41284"
       x="-303.44052"
       id="image993"
       xlink:href="file:///C:/Users/CodeMinion/Documents/3DPrinting/Costumes/Overwatch/Mei/Snowball/References/Snowball-battery-1.PNG"
       preserveAspectRatio="none"
       height="364.04092"
       width="689.31384"
       style="opacity:0.7229996" />
    <g
       id="g1094"
       transform="translate(-348.84705,-59.443986)" />
    <g
       id="g1122-5-7"
       transform="matrix(0.5,0,0,0.5,-156.27426,115.16052)">
      <path
         style="opacity:1;fill:#88d7f6;fill-opacity:1;stroke:none;stroke-width:2.90645671;stroke-linecap:butt;stroke-linejoin:miter;stroke-miterlimit:4;stroke-dasharray:none;stroke-dashoffset:0;stroke-opacity:1"
         d="m 197.14258,141.42773 c -22.15998,0 -40,17.84003 -40,40 V 300 c 0,22.15998 17.84002,40 40,40 h 428.57226 c 22.15998,0 40,-17.84002 40,-40 v -24.41211 c 0.63343,0.0753 1.2734,0.12695 1.92774,0.12695 8.90357,0 16.07226,-7.16869 16.07226,-16.07226 v -41.42774 c 0,-8.90356 -7.16869,-16.07226 -16.07226,-16.07226 -0.65432,0 -1.29432,0.0497 -1.92774,0.125 v -20.83985 c 0,-22.15997 -17.84002,-40 -40,-40 z m -5.71485,21.42969 h 437.14454 c 9.49711,0 17.14257,7.64546 17.14257,17.14258 v 124.28516 c 0,9.49712 -7.64546,17.14257 -17.14257,17.14257 H 191.42773 c -9.49711,0 -17.14257,-7.64545 -17.14257,-17.14257 V 180 c 0,-9.49712 7.64546,-17.14258 17.14257,-17.14258 z"
         transform="matrix(0.26458333,0,0,0.26458333,0,169.99998)"
         id="path1108-5-8"
         inkscape:connector-curvature="0" />
      <path
         style="opacity:1;fill:#88d7f6;fill-opacity:1;stroke:none;stroke-width:2.90645671;stroke-linecap:butt;stroke-linejoin:miter;stroke-miterlimit:4;stroke-dasharray:none;stroke-dashoffset:0;stroke-opacity:1"
         d="m 201.07227,174.28516 c -6.52928,0 -11.78711,5.25783 -11.78711,11.78711 v 112.14257 c 0,6.52928 5.25783,11.78516 11.78711,11.78516 h 45.41406 l 16.77734,-135.71484 z"
         transform="matrix(0.26458333,0,0,0.26458333,0,169.99998)"
         id="path1110-0-1"
         inkscape:connector-curvature="0" />
      <path
         style="opacity:1;fill:#88d7f6;fill-opacity:1;stroke:none;stroke-width:2.90645671;stroke-linecap:butt;stroke-linejoin:miter;stroke-miterlimit:4;stroke-dasharray:none;stroke-dashoffset:0;stroke-opacity:1"
         d="M 274.56641,174.28516 257.78906,310 h 88.69727 l 16.77734,-135.71484 z"
         transform="matrix(0.26458333,0,0,0.26458333,0,169.99998)"
         id="path1112-8-1"
         inkscape:connector-curvature="0" />
      <path
         style="opacity:1;fill:#88d7f6;fill-opacity:1;stroke:none;stroke-width:2.90645671;stroke-linecap:butt;stroke-linejoin:miter;stroke-miterlimit:4;stroke-dasharray:none;stroke-dashoffset:0;stroke-opacity:1"
         d="M 374.56641,174.28516 357.78906,310 h 88.69727 l 16.77734,-135.71484 z"
         transform="matrix(0.26458333,0,0,0.26458333,0,169.99998)"
         id="path1114-6-8"
         inkscape:connector-curvature="0" />
      <path
         style="opacity:1;fill:#88d7f6;fill-opacity:1;stroke:none;stroke-width:2.90645671;stroke-linecap:butt;stroke-linejoin:miter;stroke-miterlimit:4;stroke-dasharray:none;stroke-dashoffset:0;stroke-opacity:1"
         d="M 474.56641,174.28516 457.78906,310 h 88.69727 l 16.77734,-135.71484 z"
         transform="matrix(0.26458333,0,0,0.26458333,0,169.99998)"
         id="path1116-0-0"
         inkscape:connector-curvature="0" />
      <rect
         style="opacity:1;fill:none;fill-opacity:1;stroke:none;stroke-width:0.76899999;stroke-linecap:butt;stroke-linejoin:miter;stroke-miterlimit:4;stroke-dasharray:none;stroke-dashoffset:0;stroke-opacity:1"
         id="rect1120-9-4"
         width="211.66666"
         height="127"
         x="3.4195964e-006"
         y="169.99998"
         ry="0" />
    </g>
    <rect
       style="opacity:1;fill:#88d7f6;fill-opacity:1;stroke:none;stroke-width:0.76899999;stroke-linecap:butt;stroke-linejoin:miter;stroke-miterlimit:4;stroke-dasharray:none;stroke-dashoffset:0;stroke-opacity:1"
       id="rect1403"
       width="211.66666"
       height="4.8108511"
       x="0"
       y="207.75348" />
    <rect
       y="231.59286"
       x="211.66667"
       height="2.1381559"
       width="211.66666"
       id="rect1405"
       style="opacity:1;fill:#88d7f6;fill-opacity:1;stroke:none;stroke-width:0.51266664;stroke-linecap:butt;stroke-linejoin:miter;stroke-miterlimit:4;stroke-dasharray:none;stroke-dashoffset:0;stroke-opacity:1" />
  </g>
</svg>
