<?xml version="1.0" encoding="UTF-8" standalone="no"?>
<!-- Created with Inkscape (http://www.inkscape.org/) -->

<svg
   xmlns:dc="http://purl.org/dc/elements/1.1/"
   xmlns:cc="http://creativecommons.org/ns#"
   xmlns:rdf="http://www.w3.org/1999/02/22-rdf-syntax-ns#"
   xmlns:svg="http://www.w3.org/2000/svg"
   xmlns="http://www.w3.org/2000/svg"
   xmlns:xlink="http://www.w3.org/1999/xlink"
   xmlns:sodipodi="http://sodipodi.sourceforge.net/DTD/sodipodi-0.dtd"
   xmlns:inkscape="http://www.inkscape.org/namespaces/inkscape"
   width="800"
   height="480"
   viewBox="0 0 211.66666 127"
   version="1.1"
   id="svg8"
   sodipodi:docname="nine_years.svg"
   inkscape:export-filename="C:\Users\CodeMinion\Documents\3DPrinting\Costumes\Overwatch\Mei\Snowball\Code\snowball\assets\spritesheets\sprite_nine_years.png"
   inkscape:export-xdpi="96"
   inkscape:export-ydpi="96"
   inkscape:version="0.92.3 (2405546, 2018-03-11)">
  <defs
     id="defs2" />
  <sodipodi:namedview
     id="base"
     pagecolor="#000000"
     bordercolor="#666666"
     borderopacity="1.0"
     inkscape:pageopacity="0"
     inkscape:pageshadow="2"
     inkscape:zoom="0.35"
     inkscape:cx="413.40812"
     inkscape:cy="239.70002"
     inkscape:document-units="px"
     inkscape:current-layer="layer1"
     showgrid="false"
     units="px"
     inkscape:window-width="1366"
     inkscape:window-height="705"
     inkscape:window-x="-8"
     inkscape:window-y="-8"
     inkscape:window-maximized="1"
     showguides="true"
     inkscape:guide-bbox="true"
     inkscape:snap-global="true"
     inkscape:snap-bbox="true">
    <sodipodi:guide
       position="119.81845,0"
       orientation="0,1"
       id="guide889"
       inkscape:locked="false" />
    <sodipodi:guide
       position="103.0324,72.430041"
       orientation="0,1"
       id="guide1423"
       inkscape:locked="false" />
    <sodipodi:guide
       position="100.54166,56.885417"
       orientation="0,1"
       id="guide1425"
       inkscape:locked="false" />
    <sodipodi:guide
       position="64.066962,87.690476"
       orientation="0,1"
       id="guide1427"
       inkscape:locked="false" />
    <sodipodi:guide
       position="69.547617,42.71131"
       orientation="0,1"
       id="guide1429"
       inkscape:locked="false" />
    <sodipodi:guide
       position="92.742523,112.2532"
       orientation="0,1"
       id="guide1437"
       inkscape:locked="false" />
    <sodipodi:guide
       position="87.690473,32.127976"
       orientation="0,1"
       id="guide2233"
       inkscape:locked="false" />
  </sodipodi:namedview>
  <metadata
     id="metadata5">
    <rdf:RDF>
      <cc:Work
         rdf:about="">
        <dc:format>image/svg+xml</dc:format>
        <dc:type
           rdf:resource="http://purl.org/dc/dcmitype/StillImage" />
        <dc:title></dc:title>
      </cc:Work>
    </rdf:RDF>
  </metadata>
  <g
     inkscape:label="Layer 1"
     inkscape:groupmode="layer"
     id="layer1"
     transform="translate(0,-169.99998)">
    <g
       id="g1094"
       transform="translate(-348.84705,-59.443986)" />
    <path
       style="opacity:1;fill:#88d7f6;fill-opacity:1;stroke:#88d7f6;stroke-width:2.90645671;stroke-linecap:butt;stroke-linejoin:miter;stroke-miterlimit:4;stroke-dasharray:none;stroke-dashoffset:0;stroke-opacity:1"
       d="m 133,125.29492 c -5.54,0 -10,4.46 -10,10 v 131.33789 h 25.00781 23.66211 41.71289 v 67.79492 h -65.375 V 293.71289 H 123 v 47.71484 c 0,5.54 4.46,10 10,10 h 99 c 5.54,0 10,-4.46 10,-10 V 135.29492 c 0,-5.54 -4.46,-10 -10,-10 z m 15.24805,19.33399 h 64.89453 v 97.98437 h -64.89453 z"
       transform="matrix(0.26458333,0,0,0.26458333,0,169.99998)"
       id="rect2231"
       inkscape:connector-curvature="0"
       sodipodi:nodetypes="ssccccccccsssssssccccc" />
    <rect
       y="255.68716"
       x="196.66692"
       height="8.4332771"
       width="5.9664044"
       id="rect2243"
       style="opacity:1;fill:#88d7f6;fill-opacity:1;stroke:#88d7f6;stroke-width:0.76899999;stroke-linecap:butt;stroke-linejoin:miter;stroke-miterlimit:4;stroke-dasharray:none;stroke-dashoffset:0;stroke-opacity:1"
       ry="1.3229166"
       rx="1.3229166" />
    <image
       sodipodi:absref="C:\Users\CodeMinion\Documents\3DPrinting\Costumes\Overwatch\Mei\Snowball\References\Snowball-9-Years.PNG"
       y="510.66663"
       x="-546.3855"
       id="image2309"
       xlink:href="file:///C:/Users/CodeMinion/Documents/3DPrinting/Costumes/Overwatch/Mei/Snowball/References/Snowball-9-Years.PNG"
       preserveAspectRatio="none"
       height="288.95291"
       width="497.51471"
       transform="rotate(3.9513614)" />
    <path
       style="fill:#88d7f6;fill-opacity:1;fill-rule:evenodd;stroke:none;stroke-width:0.45233414px;stroke-linecap:butt;stroke-linejoin:miter;stroke-opacity:1"
       d="m 87.676559,224.56994 14.623061,39.42173 -5.629513,17.74581 9.884783,0.0931 13.70204,-57.26059 -7.39095,0 -7.31854,25.19889 -8.824294,-25.19889 z"
       id="path2312"
       inkscape:connector-curvature="0"
       sodipodi:nodetypes="ccccccccc" />
    <path
       style="fill:#88d7f6;fill-opacity:1;fill-rule:evenodd;stroke:none;stroke-width:0.44733495px;stroke-linecap:butt;stroke-linejoin:miter;stroke-opacity:1"
       d="m 126.60384,224.8372 v 39.28862 l 11.09547,-0.27881 -0.15569,-31.72582 h 8.13378 l 0.16084,7.99337 9.87447,0 -0.094,-9.30176 c -0.59617,-2.4847 -0.41087,-3.58529 -5.34438,-4.32979 l -13.01417,0.13752 -0.0575,-2.05059 z"
       id="path2314"
       inkscape:connector-curvature="0"
       sodipodi:nodetypes="cccccccccccc" />
    <path
       style="fill:#88d7f6;fill-opacity:1;fill-rule:evenodd;stroke:none;stroke-width:0.47971374px;stroke-linecap:butt;stroke-linejoin:miter;stroke-opacity:1"
       d="m 181.92196,224.56994 h -14.18239 c -2.25393,0.63761 -5.19581,-0.0425 -6.26797,4.28811 l 0.0582,6.68171 c 0.93738,3.85506 3.28254,5.53965 5.76684,7.53837 l 15.41938,8.90896 -0.17134,5.48245 -10.62223,0.012 -0.17133,-8.2001 -8.75509,-0.0356 -0.0238,7.36702 c -0.77218,5.92252 2.07122,7.84853 4.92119,8.25909 l 17.96566,0 c 3.48042,-0.0783 5.83561,-1.53677 5.76593,-5.00386 v -6.68172 c -0.4689,-3.62792 -2.97344,-5.89872 -6.16775,-7.70969 l -15.59071,-9.42294 v -5.1398 l 10.79356,0.0171 0.17134,7.69257 7.88102,-0.0788 -0.17133,-5.91761 c -0.1872,-4.24899 -2.55399,-7.23006 -6.61919,-8.05729 z"
       id="path2316"
       inkscape:connector-curvature="0"
       sodipodi:nodetypes="cccccccccccccccccccccccc" />
  </g>
</svg>
